<svg id="Layer_1" data-name="Layer 1" xmlns="http://www.w3.org/2000/svg" xmlns:xlink="http://www.w3.org/1999/xlink" viewBox="0 0 218.36 378.1"><defs><style>.cls-1{fill:none;}.cls-2{fill:url(#linear-gradient);}.cls-3{fill:#323749;}.cls-4{fill:#3f2e20;}.cls-5,.cls-6{fill:#232322;}.cls-6{font-size:32.32px;font-family:SemlordemoRegular, Semlor-demo;}</style><linearGradient id="linear-gradient" x1="118.7" y1="19.96" x2="136.19" y2="69.86" gradientUnits="userSpaceOnUse"><stop offset="0" stop-color="#aecd9e"/><stop offset="1" stop-color="#629c6e"/></linearGradient></defs><circle class="cls-1" cx="124.88" cy="53.28" r="10.5"/><path class="cls-1" d="M113.58,47a10.51,10.51,0,1,0,10.5,10.51A10.51,10.51,0,0,0,113.58,47Z" transform="translate(-25.28 -4.23)"/><path class="cls-1" d="M77,47A10.51,10.51,0,1,0,87.53,57.55,10.51,10.51,0,0,0,77,47Z" transform="translate(-25.28 -4.23)"/><path class="cls-1" d="M186.72,47a10.5,10.5,0,1,0,10.5,10.5A10.51,10.51,0,0,0,186.72,47Z" transform="translate(-25.28 -4.23)"/><path class="cls-2" d="M212.58,31.65,185.16,4.23,167.24,22.16a42.08,42.08,0,0,1,12.35,12c-.34.1-.68.22-1,.34a36.42,36.42,0,0,0-4.11-4.31l-.07-.06c-.46-.4-.92-.79-1.39-1.17l-.23-.18c-.43-.33-.86-.66-1.3-1l-.31-.22c-.43-.3-.86-.59-1.3-.87l-.33-.21c-.46-.29-.92-.56-1.39-.83l-.28-.16c-.56-.31-1.12-.6-1.7-.88h0a38.66,38.66,0,0,0-3.63-1.53l-.46-.16-1.37-.44-.63-.18c-.41-.11-.82-.23-1.24-.33l-.71-.16-1.21-.25-.75-.13c-.41-.07-.83-.13-1.24-.18l-.73-.09c-.46-.05-.91-.09-1.37-.12l-.63,0c-.67,0-1.34-.06-2-.06h-.43l-1.45,0-.89.07-1,.07-1,.13-.79.1-1.18.21-.61.11c-.43.09-.86.19-1.28.3l-.49.11c-.46.12-.91.25-1.37.39l-.35.1c-.49.15-1,.31-1.45.48l-.25.09c-.5.18-1,.38-1.49.58l-.16.07c-.52.22-1,.45-1.54.69l-.07,0c-.53.26-1.05.52-1.56.8h0l-.93.53a36.5,36.5,0,0,0-36.57,0,36.54,36.54,0,0,0-44.14,5.8h0L25.28,57.53,51.13,83.37l0,0,27.42,27.41L96.5,92.9a42.08,42.08,0,0,1-12.35-12l1-.34a36.33,36.33,0,0,0,4.11,4.3.46.46,0,0,0,.07.07c.45.4.92.79,1.39,1.16l.23.19c.43.33.86.66,1.3,1l.31.22c.42.3.86.59,1.3.88l.33.21c.46.28.92.56,1.39.83l.28.15c.56.31,1.12.61,1.7.89h0A38.66,38.66,0,0,0,101.22,92l.46.15c.45.16.91.31,1.37.45l.63.18,1.24.32.71.17c.4.09.81.17,1.21.24l.75.14c.41.07.82.12,1.24.18l.73.09c.45.05.91.08,1.37.12l.63,0c.67,0,1.34,0,2,0H114c.49,0,1,0,1.46,0l.89-.07,1-.07,1-.14.79-.1c.39-.06.79-.13,1.18-.21.2,0,.41-.06.61-.11.43-.08.86-.19,1.28-.29l.48-.11c.47-.12.92-.25,1.38-.39l.35-.1c.49-.15,1-.32,1.45-.49l.24-.08c.51-.18,1-.38,1.5-.59l.16-.06c.52-.22,1-.45,1.54-.7l.07,0c.53-.25,1.05-.52,1.56-.79h0c.31-.17.62-.34.92-.52a36.59,36.59,0,0,0,36.58,0,36.56,36.56,0,0,0,44.14-5.81h0l25.86-25.86L212.61,31.68ZM77,68.05a10.51,10.51,0,1,1,10.51-10.5A10.5,10.5,0,0,1,77,68.05Zm36.56,0a10.51,10.51,0,1,1,10.5-10.5A10.5,10.5,0,0,1,113.58,68.05Zm36.58,0a10.5,10.5,0,1,1,10.5-10.5A10.51,10.51,0,0,1,150.16,68Zm36.56,0a10.5,10.5,0,1,1,10.5-10.5A10.51,10.51,0,0,1,186.72,68Z" transform="translate(-25.28 -4.23)"/><path class="cls-3" d="M210.75,87.56l.79-.78.59.59,0,0a2.15,2.15,0,0,1,.11-1.14,2.68,2.68,0,0,1,.64-1,2.93,2.93,0,0,1,1-.71,2.6,2.6,0,0,1,1.13-.2,2.83,2.83,0,0,1,1.12.27,3.27,3.27,0,0,1,1,.71,3.47,3.47,0,0,1,.72,1,3,3,0,0,1,.27,1.12,2.75,2.75,0,0,1-.21,1.12,2.93,2.93,0,0,1-.71,1,2.68,2.68,0,0,1-1,.66,2,2,0,0,1-1.11.09l0,0,3.07,3.07-.79.79ZM213.54,86a2,2,0,0,0-.46.68,1.55,1.55,0,0,0-.13.73,1.6,1.6,0,0,0,.18.72,2.22,2.22,0,0,0,.48.68,2.54,2.54,0,0,0,.68.49,1.8,1.8,0,0,0,1.46,0,2,2,0,0,0,.68-.46,2,2,0,0,0,.46-.68,1.67,1.67,0,0,0,.13-.72,1.91,1.91,0,0,0-.18-.73,2.45,2.45,0,0,0-.49-.68,2.6,2.6,0,0,0-.68-.49,1.91,1.91,0,0,0-.73-.18,1.67,1.67,0,0,0-.72.13A2,2,0,0,0,213.54,86Z" transform="translate(-25.28 -4.23)"/><path class="cls-3" d="M217.81,84.66a2.85,2.85,0,0,1-.68-1,3.11,3.11,0,0,1-.23-1.16,3,3,0,0,1,.24-1.17,3,3,0,0,1,.69-1,3.09,3.09,0,0,1,2.21-.93,3.15,3.15,0,0,1,1.17.22,3.2,3.2,0,0,1,1,.68,3.14,3.14,0,0,1,.91,2.19,3.44,3.44,0,0,1-.24,1.17,3.23,3.23,0,0,1-.7,1,3.21,3.21,0,0,1-2.2.93,3.15,3.15,0,0,1-1.17-.22A3,3,0,0,1,217.81,84.66Zm.84-.84a2.6,2.6,0,0,0,.68.49,1.91,1.91,0,0,0,.73.18,1.74,1.74,0,0,0,.73-.13,2.21,2.21,0,0,0,.68-.46,2.1,2.1,0,0,0,.46-.68,1.88,1.88,0,0,0,.13-.73,1.84,1.84,0,0,0-.19-.73,2.45,2.45,0,0,0-1.16-1.16,1.75,1.75,0,0,0-1.46-.06,2.1,2.1,0,0,0-.68.46,2.21,2.21,0,0,0-.46.68,1.74,1.74,0,0,0-.13.73,1.91,1.91,0,0,0,.18.73A2.6,2.6,0,0,0,218.65,83.82Z" transform="translate(-25.28 -4.23)"/><path class="cls-3" d="M223.93,79.12a1.46,1.46,0,0,0,.61.38,1.84,1.84,0,0,0,.7.07,2,2,0,0,0,.69-.21,2.17,2.17,0,0,0,.61-.43,1.68,1.68,0,0,0,.47-.82,2.7,2.7,0,0,0,.05-1l1.05-.14a3.11,3.11,0,0,1-1,2.7,3.44,3.44,0,0,1-1.06.72,2.64,2.64,0,0,1-1.13.21,3,3,0,0,1-1.12-.26,3.61,3.61,0,0,1-1-.72,3.14,3.14,0,0,1-1-2.16,2.82,2.82,0,0,1,.22-1.14,3,3,0,0,1,.69-1,2.86,2.86,0,0,1,1.13-.74,2.45,2.45,0,0,1,1.13-.12,2.75,2.75,0,0,1,1.06.34,4.31,4.31,0,0,1,.9.69l.28.28ZM225.79,76a2.11,2.11,0,0,0-.57-.4,1.45,1.45,0,0,0-.6-.16,1.41,1.41,0,0,0-.63.12,2,2,0,0,0-.61.43,1.55,1.55,0,0,0-.42.64,1.87,1.87,0,0,0-.13.69A2,2,0,0,0,223,78a1.74,1.74,0,0,0,.34.52Z" transform="translate(-25.28 -4.23)"/><path class="cls-3" d="M228.92,71.48a1.75,1.75,0,0,0-.64,0,1.4,1.4,0,0,0-.62.39,1.39,1.39,0,0,0-.37.6.55.55,0,0,0,.14.56.58.58,0,0,0,.42.18,1.59,1.59,0,0,0,.46-.1,2,2,0,0,0,.45-.24l.38-.26.63-.33a1.71,1.71,0,0,1,.61-.15,1.26,1.26,0,0,1,.6.09,1.65,1.65,0,0,1,.58.39,1.75,1.75,0,0,1,.45.75,1.67,1.67,0,0,1,0,.8,2.07,2.07,0,0,1-.31.76,3.83,3.83,0,0,1-1.6,1.43,2.24,2.24,0,0,1-1.28.12l.11-1.08a3.44,3.44,0,0,0,.77-.09,1.51,1.51,0,0,0,.73-.43,1.84,1.84,0,0,0,.27-.34,1.18,1.18,0,0,0,.17-.36.76.76,0,0,0,0-.36.6.6,0,0,0-.56-.49,1.36,1.36,0,0,0-.44.08,3.48,3.48,0,0,0-.43.22l-.37.24c-.21.13-.42.24-.62.34a1.85,1.85,0,0,1-.62.19,1.28,1.28,0,0,1-.61,0,1.41,1.41,0,0,1-.6-.39,1.59,1.59,0,0,1-.43-.7,1.64,1.64,0,0,1,0-.76,2.12,2.12,0,0,1,.27-.75,3.17,3.17,0,0,1,.49-.65,3,3,0,0,1,1-.65,1.84,1.84,0,0,1,1.14-.09Z" transform="translate(-25.28 -4.23)"/><path class="cls-3" d="M232.82,69.65a3.2,3.2,0,0,1-.68-1,3.15,3.15,0,0,1-.22-1.17,3.09,3.09,0,0,1,.93-2.21,3,3,0,0,1,1-.69,3,3,0,0,1,1.17-.24,3.11,3.11,0,0,1,1.16.23,2.85,2.85,0,0,1,1,.68,3,3,0,0,1,.69,1,3.15,3.15,0,0,1,.22,1.17,3.21,3.21,0,0,1-.93,2.2,3.23,3.23,0,0,1-1,.7,3.44,3.44,0,0,1-1.17.24,3.14,3.14,0,0,1-2.19-.91Zm.84-.84a2.35,2.35,0,0,0,.68.48,1.84,1.84,0,0,0,.73.19,1.72,1.72,0,0,0,.73-.14,2,2,0,0,0,.68-.46,2,2,0,0,0,.46-.68,1.67,1.67,0,0,0,.13-.72,1.91,1.91,0,0,0-.18-.73,2.61,2.61,0,0,0-1.17-1.17,1.91,1.91,0,0,0-.73-.18,1.67,1.67,0,0,0-.72.13,2,2,0,0,0-.68.46,1.82,1.82,0,0,0-.46.68,1.7,1.7,0,0,0-.14.73,1.84,1.84,0,0,0,.19.73A2.49,2.49,0,0,0,233.66,68.81Z" transform="translate(-25.28 -4.23)"/><path class="cls-3" d="M235.8,62.51l.79-.79.64.64,0,0a1.66,1.66,0,0,1,0-1.06,2.58,2.58,0,0,1,1.31-1.53,1.76,1.76,0,0,1,.77-.2,1.9,1.9,0,0,1,.82.16,2.63,2.63,0,0,1,.84.6L243.65,63l-.79.79-2.46-2.45a1.74,1.74,0,0,0-.57-.42,1.14,1.14,0,0,0-.55-.12,1.21,1.21,0,0,0-.49.11,2,2,0,0,0-.41.3,1.74,1.74,0,0,0-.37.54,1.3,1.3,0,0,0-.12.62,1.67,1.67,0,0,0,.19.68,2.67,2.67,0,0,0,.53.71l2.14,2.14-.79.79Z" transform="translate(-25.28 -4.23)"/><path class="cls-4" d="M104,222.32c-6.66-1.5-11.91-4.14-14.08-7a2.1,2.1,0,0,0-.35,1.12C89.59,219.2,95.65,221.52,104,222.32Z" transform="translate(-25.28 -4.23)"/><path class="cls-4" d="M107.42,234.29c-20.74,0-37.55-5.87-37.55-13.12,0-3.83,4.7-7.27,12.2-9.67a18.33,18.33,0,0,1,.25-24.16,2.9,2.9,0,0,1-.43-1.47c0-4.79,13.18-8.67,29.45-8.67,1.92,0,3.8.06,5.62.16V163.72a4,4,0,0,0-2.45-3.72,41.39,41.39,0,0,0-8.36-2.47,78,78,0,0,0-15-1.34q-16.42,0-27.49,3T45.79,168.6a35.73,35.73,0,0,0-9.72,16.26,83.66,83.66,0,0,0-2.94,23.64q0,13.75,3.52,23.05A36.26,36.26,0,0,0,47,246.64a39.79,39.79,0,0,0,16.84,8.21A98.53,98.53,0,0,0,87,257.29c3.8,0,7.13-.06,10-.17s5.45-.31,7.8-.59a61.47,61.47,0,0,0,6.46-1.09q2-.45,3.9-1.05a2.7,2.7,0,0,0,1.88-2.57v-18C113.91,234.14,110.72,234.29,107.42,234.29Z" transform="translate(-25.28 -4.23)"/><path class="cls-4" d="M117,179.87v-1.31c-5.45-.64-13.35.08-22.21,2.16C103,179.86,111.27,179.16,117,179.87Z" transform="translate(-25.28 -4.23)"/><path class="cls-4" d="M82.18,198.63c-2.6,4.19-1.54,8.89,1.88,12.28,1.76-.49,3.65-.93,5.64-1.3L84.88,195A26.69,26.69,0,0,0,82.18,198.63Z" transform="translate(-25.28 -4.23)"/><path class="cls-4" d="M109.53,192.42c-1.64-.1-3.34-.28-5.09-.5-5.34-.68-16.63-1.45-19.23-7a2.27,2.27,0,0,0-.58,1.44c0,3.4,9.36,6.16,20.91,6.16C106.9,192.53,108.24,192.49,109.53,192.42Z" transform="translate(-25.28 -4.23)"/><path class="cls-4" d="M140.43,195.75a15.83,15.83,0,0,1,5.94,1.07,15.27,15.27,0,0,1,4.58,2.84,12.13,12.13,0,0,1,3,3.94,10.24,10.24,0,0,1,1,4.32v19.75a1.32,1.32,0,0,1-1.27,1.32c-1.63.07-3.37.12-5.22.16q-3.51.06-8-.21v-.42a16.7,16.7,0,0,1-2.8.49c-1,.09-1.87.14-2.72.14q-6.57,0-10.26-2.49T121,218.08a8.13,8.13,0,0,1,.89-3.76,9.39,9.39,0,0,1,2.61-3.12,13.5,13.5,0,0,1,4.26-2.14,19.46,19.46,0,0,1,5.82-.79,19.94,19.94,0,0,1,2.83.24c.57.08,1.11.14,1.63.18a1.32,1.32,0,0,0,1.43-1.32V207a1.81,1.81,0,0,0-.71-1.48,5.53,5.53,0,0,0-1.75-1,9.4,9.4,0,0,0-2.24-.52,19.45,19.45,0,0,0-2.16-.14q-3.81,0-6.16.21a16.21,16.21,0,0,0-3,.57,1.32,1.32,0,0,1-1.72-1.26v-2a1.32,1.32,0,0,1,.45-1,14.65,14.65,0,0,1,3.55-2.26,24.57,24.57,0,0,1,4.51-1.56,26.51,26.51,0,0,1,4.7-.69C137.47,195.8,139,195.75,140.43,195.75Zm-.15,20.83a1.33,1.33,0,0,0-1.34-1.33q-.37,0-.75,0a4.87,4.87,0,0,0-1.86.56,3.72,3.72,0,0,0-1.34,1.21,3.05,3.05,0,0,0-.53,1.79c0,1.76.53,3,1.57,3.63a5.38,5.38,0,0,0,2.9.75,1.33,1.33,0,0,0,1.35-1.33Z" transform="translate(-25.28 -4.23)"/><path class="cls-4" d="M183.27,195.36a1.35,1.35,0,0,1-1.18,1.32h0a4,4,0,0,0-1.3.45,3.52,3.52,0,0,0-1.09.94,2.3,2.3,0,0,0-.44,1.41v4a1.33,1.33,0,0,0,1.32,1.33h1.38a1.33,1.33,0,0,1,1.33,1.33v7.16a1.34,1.34,0,0,1-1.33,1.33h-1.38a1.32,1.32,0,0,0-1.32,1.32v11.66a1.33,1.33,0,0,1-1.33,1.33H163.85a1.33,1.33,0,0,1-1.33-1.33V216a1.32,1.32,0,0,0-1.33-1.32H160a1.33,1.33,0,0,1-1.32-1.33v-7.16a1.32,1.32,0,0,1,1.32-1.33h1.15a1.33,1.33,0,0,0,1.33-1.33v-4.82a9.64,9.64,0,0,1,2.31-6.88,13.21,13.21,0,0,1,5.56-3.53,21.22,21.22,0,0,1,6.83-1,29.51,29.51,0,0,1,4.95.42,1.34,1.34,0,0,1,1.1,1.31Z" transform="translate(-25.28 -4.23)"/><path class="cls-4" d="M205.13,195.75q9.63,0,14.48,4.77,4.51,4.44,3.85,12.48a1.32,1.32,0,0,1-1.32,1.21h-18.5a1.33,1.33,0,0,0-1.31,1.53,6.58,6.58,0,0,0,.49,1.76,6.15,6.15,0,0,0,1.6,2.21,6.69,6.69,0,0,0,2.24,1.28,7.94,7.94,0,0,0,2.5.41,15.31,15.31,0,0,0,5-.83,6,6,0,0,0,3-2.1,1.37,1.37,0,0,1,1.1-.59H221a1.33,1.33,0,0,1,1.26,1.76A11.3,11.3,0,0,1,221,222.3a13.9,13.9,0,0,1-3.73,3.63,19.21,19.21,0,0,1-5.37,2.46,23.75,23.75,0,0,1-6.72.89,22.57,22.57,0,0,1-7-1.1,18.76,18.76,0,0,1-6.09-3.25,16.21,16.21,0,0,1-4.25-5.29,15.71,15.71,0,0,1-1.6-7.23,16.57,16.57,0,0,1,1.45-7.15,15,15,0,0,1,4-5.19,17.85,17.85,0,0,1,6-3.21A24.46,24.46,0,0,1,205.13,195.75Zm8.93,12.59a1.33,1.33,0,0,0,1.31-1.55,4.55,4.55,0,0,0-1.62-2.83,7.64,7.64,0,0,0-4.81-1.36q-3.88,0-5.45,1.57a4.24,4.24,0,0,0-1.25,2.77,1.32,1.32,0,0,0,1.32,1.4Z" transform="translate(-25.28 -4.23)"/><path class="cls-5" d="M132.09,379.78l-30.46-97.16a2,2,0,0,0-1.87-1.38H69.32a2,2,0,0,0-1.89,1.43L40,379.84a2,2,0,0,0,1.89,2.49H71.66l7-29.63a.93.93,0,0,1,1.25-.65l12.81,12.44,12.81-12.44a.93.93,0,0,1,1.25.65l7,29.63h16.36A2,2,0,0,0,132.09,379.78ZM91.91,343.11a.85.85,0,0,1-.85.85h-7a.84.84,0,0,1-.84-.85v-7a.84.84,0,0,1,.84-.85h7a.85.85,0,0,1,.85.85Zm10.38,0a.85.85,0,0,1-.85.85h-7a.85.85,0,0,1-.85-.85v-7a.85.85,0,0,1,.85-.85h7a.85.85,0,0,1,.85.85Zm7.25-11.74a.17.17,0,0,1-.17.16H76.13a.16.16,0,0,1-.16-.16v-.82a.16.16,0,0,1,.16-.16h7.05l3.15-11.87a.42.42,0,0,1,.57-.3l5.85,3,5.85-3a.42.42,0,0,1,.57.3l3.15,11.87h7.05a.17.17,0,0,1,.17.16Z" transform="translate(-25.28 -4.23)"/><text class="cls-6" transform="translate(101.09 353.38)">gent M</text></svg>