<svg id="Layer_1" data-name="Layer 1" xmlns="http://www.w3.org/2000/svg" xmlns:xlink="http://www.w3.org/1999/xlink" viewBox="0 0 169.68 27.77"><defs><style>.cls-1{fill:none;}.cls-2{fill:url(#linear-gradient);}.cls-3{fill:#323749;}.cls-4{fill:#3f2e20;}.cls-5{fill:#232322;}</style><linearGradient id="linear-gradient" x1="27.8" y1="6.41" x2="32.36" y2="19.41" gradientUnits="userSpaceOnUse"><stop offset="0" stop-color="#aecd9e"/><stop offset="1" stop-color="#629c6e"/></linearGradient></defs><circle class="cls-1" cx="32.53" cy="13.88" r="2.74"/><path class="cls-1" d="M26.47,13.47A2.74,2.74,0,1,0,29.2,16.2,2.74,2.74,0,0,0,26.47,13.47Z" transform="translate(-3.46 -2.31)"/><path class="cls-1" d="M16.94,13.47a2.74,2.74,0,1,0,2.74,2.73A2.73,2.73,0,0,0,16.94,13.47Z" transform="translate(-3.46 -2.31)"/><path class="cls-1" d="M45.52,13.46a2.74,2.74,0,1,0,2.74,2.74A2.73,2.73,0,0,0,45.52,13.46Z" transform="translate(-3.46 -2.31)"/><path class="cls-2" d="M52.26,9.46,45.12,2.31,40.45,7a11.17,11.17,0,0,1,3.22,3.13l-.27.09a9.44,9.44,0,0,0-1.07-1.12l0,0L42,8.76l-.06,0-.34-.25-.08-.06-.34-.23L41,8.12C40.93,8,40.8,8,40.68,7.9l-.07,0-.44-.23h0a9.82,9.82,0,0,0-.94-.4l-.12,0-.36-.12-.16,0-.33-.09-.18,0-.32-.07-.19,0-.32,0-.2,0-.35,0h-.17l-.52,0h-.49l-.23,0-.25,0-.28,0-.2,0-.31,0-.16,0-.33.08-.13,0-.35.1-.1,0-.37.12-.07,0-.39.16h0l-.4.18h0l-.41.21h0L31.23,8A9.51,9.51,0,0,0,21.7,8,9.52,9.52,0,0,0,10.2,9.46h0L3.46,16.2l6.74,6.73h0l7.14,7.14L22,25.41a10.89,10.89,0,0,1-3.22-3.12l.27-.09a9.41,9.41,0,0,0,1.07,1.12l0,0,.36.3.06.05.33.25L21,24l.33.23.09.05.36.22.08,0,.44.23h0a10,10,0,0,0,.95.4l.12,0,.35.12.17,0,.32.09.19,0,.31.06.2,0,.32,0,.19,0,.36,0h.16l.53,0H27l.23,0,.25,0,.27,0,.21,0,.3-.06.16,0,.34-.08.12,0,.36-.1.09,0,.38-.12.06,0a3.12,3.12,0,0,0,.39-.15l0,0a3.65,3.65,0,0,0,.41-.18h0l.41-.21h0l.24-.14a9.51,9.51,0,0,0,9.53,0,9.52,9.52,0,0,0,11.5-1.51h0L59,16.2,52.27,9.47ZM16.94,18.94a2.74,2.74,0,1,1,2.74-2.74A2.73,2.73,0,0,1,16.94,18.94Zm9.53,0A2.74,2.74,0,1,1,29.2,16.2,2.74,2.74,0,0,1,26.47,18.94Zm9.53,0a2.74,2.74,0,1,1,2.73-2.73A2.74,2.74,0,0,1,36,18.93Zm9.52,0a2.74,2.74,0,1,1,2.74-2.73A2.73,2.73,0,0,1,45.52,18.93Z" transform="translate(-3.46 -2.31)"/><path class="cls-3" d="M51.78,24l.21-.2.15.15h0a.52.52,0,0,1,0-.3.63.63,0,0,1,.16-.26,1.06,1.06,0,0,1,.27-.18.8.8,0,0,1,.3-.06,1,1,0,0,1,.29.07,1,1,0,0,1,.26.19.91.91,0,0,1,.19.26.77.77,0,0,1,.07.29.8.8,0,0,1-.06.3.85.85,0,0,1-.18.27.77.77,0,0,1-.27.17.58.58,0,0,1-.29,0h0l.8.8-.21.2Zm.73-.39a.38.38,0,0,0-.12.17.33.33,0,0,0,0,.19.41.41,0,0,0,0,.19.59.59,0,0,0,.13.18.46.46,0,0,0,.18.13.59.59,0,0,0,.19.05.46.46,0,0,0,.19,0,.38.38,0,0,0,.17-.12.36.36,0,0,0,.12-.18.4.4,0,0,0,0-.37.46.46,0,0,0-.13-.18.52.52,0,0,0-.17-.13.77.77,0,0,0-.19-.05.41.41,0,0,0-.19,0A.36.36,0,0,0,52.51,23.63Z" transform="translate(-3.46 -2.31)"/><path class="cls-3" d="M53.62,23.27a.65.65,0,0,1-.17-.27.8.8,0,0,1-.06-.3.85.85,0,0,1,.06-.31.91.91,0,0,1,.18-.27.8.8,0,0,1,.27-.18.81.81,0,0,1,.31-.06.8.8,0,0,1,.3.06.76.76,0,0,1,.26.18.87.87,0,0,1,.18.26.81.81,0,0,1,.06.31.82.82,0,0,1-.51.75,1.08,1.08,0,0,1-.31.07.81.81,0,0,1-.57-.24Zm.22-.22a1,1,0,0,0,.18.13.43.43,0,0,0,.19,0,.32.32,0,0,0,.19,0,.94.94,0,0,0,.18-.12.57.57,0,0,0,.12-.18.58.58,0,0,0,0-.19.49.49,0,0,0,0-.19.81.81,0,0,0-.3-.3.49.49,0,0,0-.19-.05.41.41,0,0,0-.19,0,.47.47,0,0,0-.18.12.66.66,0,0,0-.12.17.44.44,0,0,0,0,.19.58.58,0,0,0,0,.19A.75.75,0,0,0,53.84,23.05Z" transform="translate(-3.46 -2.31)"/><path class="cls-3" d="M55.22,21.82a.34.34,0,0,0,.16.1.37.37,0,0,0,.18,0,.41.41,0,0,0,.18-.05.61.61,0,0,0,.16-.12.45.45,0,0,0,.12-.21.64.64,0,0,0,0-.24l.28,0a.84.84,0,0,1-.26.7.82.82,0,0,1-.28.19.58.58,0,0,1-.29,0,.59.59,0,0,1-.29-.07.82.82,0,0,1-.51-.75.58.58,0,0,1,0-.29.8.8,0,0,1,.18-.27.72.72,0,0,1,.3-.19.6.6,0,0,1,.29,0,.83.83,0,0,1,.51.27l.08.08ZM55.7,21a.49.49,0,0,0-.15-.1.28.28,0,0,0-.15,0,.26.26,0,0,0-.17,0,.66.66,0,0,0-.16.11.5.5,0,0,0-.11.17.57.57,0,0,0,0,.18.35.35,0,0,0,0,.17.57.57,0,0,0,.08.13Z" transform="translate(-3.46 -2.31)"/><path class="cls-3" d="M56.52,19.83a.5.5,0,0,0-.17,0,.31.31,0,0,0-.16.1.39.39,0,0,0-.1.16.15.15,0,0,0,0,.14.16.16,0,0,0,.11.05.27.27,0,0,0,.12,0,.67.67,0,0,0,.12-.06l.09-.07.17-.08a.32.32,0,0,1,.16,0,.26.26,0,0,1,.15,0,.47.47,0,0,1,.16.1.37.37,0,0,1,.11.2.46.46,0,0,1,0,.2.5.5,0,0,1-.08.2.86.86,0,0,1-.14.18,1,1,0,0,1-.28.2.61.61,0,0,1-.33,0l0-.29a.75.75,0,0,0,.21,0,.38.38,0,0,0,.19-.11l.07-.09a.36.36,0,0,0,0-.09.34.34,0,0,0,0-.1.3.3,0,0,0,0-.08.15.15,0,0,0-.11,0,.22.22,0,0,0-.11,0,.24.24,0,0,0-.11.06l-.1.06-.16.09-.16.05a.41.41,0,0,1-.16,0,.31.31,0,0,1-.16-.1.44.44,0,0,1-.11-.18.45.45,0,0,1,0-.2.44.44,0,0,1,.07-.19.55.55,0,0,1,.13-.17.62.62,0,0,1,.25-.17.5.5,0,0,1,.3,0Z" transform="translate(-3.46 -2.31)"/><path class="cls-3" d="M57.53,19.36a1,1,0,0,1-.17-.27.8.8,0,0,1-.06-.3.81.81,0,0,1,.06-.31.83.83,0,0,1,.45-.45.81.81,0,0,1,.31-.06.81.81,0,0,1,.57.24.65.65,0,0,1,.17.26.81.81,0,0,1,.06.31.82.82,0,0,1-.51.75.81.81,0,0,1-.31.06,1,1,0,0,1-.3-.05A.8.8,0,0,1,57.53,19.36Zm.22-.22a.94.94,0,0,0,.18.12.45.45,0,0,0,.19,0,.63.63,0,0,0,.19,0l.18-.12a.94.94,0,0,0,.12-.18.63.63,0,0,0,0-.19.45.45,0,0,0,0-.19.55.55,0,0,0-.3-.3.45.45,0,0,0-.19-.05.63.63,0,0,0-.19,0l-.18.12a.94.94,0,0,0-.12.18.63.63,0,0,0,0,.19.45.45,0,0,0,.05.19A.94.94,0,0,0,57.75,19.14Z" transform="translate(-3.46 -2.31)"/><path class="cls-3" d="M58.31,17.5l.21-.21.16.17h0a.41.41,0,0,1,0-.27.75.75,0,0,1,.17-.28.66.66,0,0,1,.17-.12.37.37,0,0,1,.2-.05.45.45,0,0,1,.22,0,.72.72,0,0,1,.22.15l.69.7-.2.21-.64-.64a.48.48,0,0,0-.15-.11.25.25,0,0,0-.14,0,.28.28,0,0,0-.13,0,.41.41,0,0,0-.11.07l-.1.14a.45.45,0,0,0,0,.16.61.61,0,0,0,0,.18,1,1,0,0,0,.14.19l.56.55-.21.21Z" transform="translate(-3.46 -2.31)"/><path class="cls-4" d="M89.22,20.26a6.66,6.66,0,0,1-3.66-1.82.55.55,0,0,0-.09.29C85.47,19.45,87,20.05,89.22,20.26Z" transform="translate(-3.46 -2.31)"/><path class="cls-4" d="M90.11,23.38c-5.4,0-9.78-1.53-9.78-3.42,0-1,1.22-1.9,3.17-2.52a4.78,4.78,0,0,1,.07-6.3.76.76,0,0,1-.11-.38c0-1.24,3.43-2.26,7.67-2.26.5,0,1,0,1.47.05V5A1.06,1.06,0,0,0,92,4a11,11,0,0,0-2.18-.64A20.44,20.44,0,0,0,85.87,3a27.35,27.35,0,0,0-7.16.79,10.83,10.83,0,0,0-4.66,2.44,9.31,9.31,0,0,0-2.53,4.24,21.83,21.83,0,0,0-.76,6.16,17.07,17.07,0,0,0,.91,6,9.36,9.36,0,0,0,2.69,3.93,10.45,10.45,0,0,0,4.39,2.15,26,26,0,0,0,6,.63c1,0,1.85,0,2.6-.05a19.87,19.87,0,0,0,2-.15c.61-.07,1.17-.17,1.68-.28.34-.08.68-.17,1-.28a.7.7,0,0,0,.5-.67V23.27C91.8,23.34,91,23.38,90.11,23.38Z" transform="translate(-3.46 -2.31)"/><path class="cls-4" d="M92.6,9.2V8.86a18,18,0,0,0-5.79.56A29.69,29.69,0,0,1,92.6,9.2Z" transform="translate(-3.46 -2.31)"/><path class="cls-4" d="M83.53,14.09a2.52,2.52,0,0,0,.49,3.2A14.46,14.46,0,0,1,85.49,17l-1.25-3.82A7.47,7.47,0,0,0,83.53,14.09Z" transform="translate(-3.46 -2.31)"/><path class="cls-4" d="M90.66,12.47c-.43,0-.87-.07-1.33-.13-1.39-.18-4.33-.38-5-1.82a.62.62,0,0,0-.15.37c0,.89,2.44,1.61,5.45,1.61C90,12.5,90.32,12.49,90.66,12.47Z" transform="translate(-3.46 -2.31)"/><path class="cls-4" d="M98.71,13.34a4,4,0,0,1,1.55.28,3.85,3.85,0,0,1,1.19.73,3.13,3.13,0,0,1,.77,1,2.62,2.62,0,0,1,.26,1.13v5.14a.34.34,0,0,1-.33.35l-1.36,0c-.61,0-1.3,0-2.08-.06v-.1A4.28,4.28,0,0,1,98,22a6,6,0,0,1-.71,0,4.75,4.75,0,0,1-2.67-.65,2.5,2.5,0,0,1-1-2.23,2.12,2.12,0,0,1,.23-1,2.58,2.58,0,0,1,.68-.81,3.61,3.61,0,0,1,1.11-.56,5.34,5.34,0,0,1,2.25-.14l.43.05a.35.35,0,0,0,.37-.35v-.11a.48.48,0,0,0-.18-.38,1.56,1.56,0,0,0-.46-.25,2.24,2.24,0,0,0-.58-.14c-.21,0-.4,0-.57,0-.66,0-1.19,0-1.6.06a3.67,3.67,0,0,0-.79.15.35.35,0,0,1-.45-.33v-.51a.32.32,0,0,1,.12-.26,3.89,3.89,0,0,1,.92-.59,6.61,6.61,0,0,1,1.18-.41,8.28,8.28,0,0,1,1.23-.18Zm0,5.42a.34.34,0,0,0-.35-.34h-.19a1.12,1.12,0,0,0-.49.14,1,1,0,0,0-.35.31.83.83,0,0,0-.13.47,1,1,0,0,0,.4.95,1.38,1.38,0,0,0,.76.19.35.35,0,0,0,.35-.34Z" transform="translate(-3.46 -2.31)"/><path class="cls-4" d="M109.87,13.24a.35.35,0,0,1-.31.34h0a1.06,1.06,0,0,0-.34.12.92.92,0,0,0-.28.24.59.59,0,0,0-.12.37v1a.35.35,0,0,0,.35.35h.36a.34.34,0,0,1,.34.34v1.87a.34.34,0,0,1-.34.34h-.36a.35.35,0,0,0-.35.35v3a.34.34,0,0,1-.34.34h-3.67a.34.34,0,0,1-.34-.34v-3a.35.35,0,0,0-.35-.35h-.3a.35.35,0,0,1-.35-.34V16a.35.35,0,0,1,.35-.34h.3a.35.35,0,0,0,.35-.35V14.09a2.52,2.52,0,0,1,.6-1.79,3.4,3.4,0,0,1,1.45-.92,5.77,5.77,0,0,1,1.78-.27,7.73,7.73,0,0,1,1.28.11.34.34,0,0,1,.29.34Z" transform="translate(-3.46 -2.31)"/><path class="cls-4" d="M115.57,13.34a5.16,5.16,0,0,1,3.77,1.24,3.86,3.86,0,0,1,1,3.25.34.34,0,0,1-.34.32h-4.82a.35.35,0,0,0-.34.4A1.57,1.57,0,0,0,115,19a1.7,1.7,0,0,0,.42.58,1.72,1.72,0,0,0,.59.33,2.06,2.06,0,0,0,.65.11,3.88,3.88,0,0,0,1.31-.22,1.6,1.6,0,0,0,.79-.54.35.35,0,0,1,.29-.16h.7a.35.35,0,0,1,.33.46,2.8,2.8,0,0,1-.35.69,3.66,3.66,0,0,1-1,.95,5.29,5.29,0,0,1-1.4.64,6.42,6.42,0,0,1-3.58-.05,4.9,4.9,0,0,1-1.58-.85,4.08,4.08,0,0,1-1.53-3.26,4.4,4.4,0,0,1,.38-1.87,4,4,0,0,1,1-1.35,4.87,4.87,0,0,1,1.56-.84A6.54,6.54,0,0,1,115.57,13.34Zm2.32,3.28a.35.35,0,0,0,.34-.41,1.15,1.15,0,0,0-.42-.73,2.51,2.51,0,0,0-2.67,0,1.15,1.15,0,0,0-.33.72.35.35,0,0,0,.35.37Z" transform="translate(-3.46 -2.31)"/><path class="cls-5" d="M150,27.9,142.56,4.21a.49.49,0,0,0-.46-.34h-7.42a.47.47,0,0,0-.46.35l-6.68,23.7a.48.48,0,0,0,.46.61h7.25L137,21.3a.23.23,0,0,1,.31-.16l3.12,3,3.12-3a.23.23,0,0,1,.31.16l1.71,7.23h4A.48.48,0,0,0,150,27.9ZM140.18,19a.2.2,0,0,1-.2.21h-1.71a.21.21,0,0,1-.21-.21V17.25a.21.21,0,0,1,.21-.2H140a.2.2,0,0,1,.2.2Zm2.53,0a.2.2,0,0,1-.2.21H140.8a.2.2,0,0,1-.2-.21V17.25a.2.2,0,0,1,.2-.2h1.71a.2.2,0,0,1,.2.2Zm1.77-2.86a0,0,0,0,1,0,0h-8.1a0,0,0,0,1,0,0v-.2a0,0,0,0,1,0,0h1.72l.76-2.9a.11.11,0,0,1,.14-.07l1.43.74,1.43-.74A.11.11,0,0,1,142,13l.76,2.9h1.72a0,0,0,0,1,0,0Z" transform="translate(-3.46 -2.31)"/><path class="cls-5" d="M152.58,18.74v3.47a1.05,1.05,0,0,1-.15.57,1.37,1.37,0,0,1-.42.41,1.8,1.8,0,0,1-.6.24,4,4,0,0,1-.69.11,4.22,4.22,0,0,1-.71,0,3.66,3.66,0,0,1-.63-.14v-.45A2.61,2.61,0,0,0,150,23a2.2,2.2,0,0,0,.58-.05,1.19,1.19,0,0,0,.44-.2.46.46,0,0,0,.18-.37v0l-.4.08a2.73,2.73,0,0,1-.41,0,1.88,1.88,0,0,1-.74-.14,1.28,1.28,0,0,1-.5-.39,1.52,1.52,0,0,1-.28-.6,3.77,3.77,0,0,1-.08-.79,1.94,1.94,0,0,1,.14-.78,1.65,1.65,0,0,1,.37-.57,1.41,1.41,0,0,1,.52-.35,1.46,1.46,0,0,1,.57-.12,1.92,1.92,0,0,1,.41.05l.4.14v-.19Zm-1.42,2.09-.18,0a.53.53,0,0,0-.39.14.46.46,0,0,0-.15.34.48.48,0,0,0,.14.35.46.46,0,0,0,.31.13,1,1,0,0,0,.27-.05Z" transform="translate(-3.46 -2.31)"/><path class="cls-5" d="M155,18.7a2,2,0,0,1,1.53.54A1.87,1.87,0,0,1,157,20.8h-2.23a1,1,0,0,0,.06.38.79.79,0,0,0,.17.25.61.61,0,0,0,.24.15.78.78,0,0,0,.26,0,1.55,1.55,0,0,0,.53-.09.57.57,0,0,0,.36-.31h.55a1.37,1.37,0,0,1-.19.51,1.55,1.55,0,0,1-.4.41,2,2,0,0,1-.56.28,2.3,2.3,0,0,1-.71.1,2.34,2.34,0,0,1-.74-.12,2.2,2.2,0,0,1-.65-.37,2,2,0,0,1-.44-.61,1.8,1.8,0,0,1-.17-.82,2.1,2.1,0,0,1,.15-.82,1.67,1.67,0,0,1,.42-.59,1.75,1.75,0,0,1,.64-.36A2.22,2.22,0,0,1,155,18.7Zm1.09,1.43a.61.61,0,0,0-.18-.49.76.76,0,0,0-.51-.16.77.77,0,0,0-.58.18.54.54,0,0,0-.12.47Z" transform="translate(-3.46 -2.31)"/><path class="cls-5" d="M160.09,18.72a1.19,1.19,0,0,1,.46.1,1.36,1.36,0,0,1,.39.27,1.38,1.38,0,0,1,.38.9v2.53h-1.43V20.88a.28.28,0,0,0-.11-.23.46.46,0,0,0-.25-.08.45.45,0,0,0-.25.07.26.26,0,0,0-.11.24v1.64h-1.75V18.78h1.75v.73a2,2,0,0,1,.34-.56A.75.75,0,0,1,160.09,18.72Z" transform="translate(-3.46 -2.31)"/><path class="cls-5" d="M163.89,20.6v.16a.85.85,0,0,0,.29.69,1.23,1.23,0,0,0,.82.28v.75a8.42,8.42,0,0,1-1.46,0,2.48,2.48,0,0,1-.85-.24.77.77,0,0,1-.39-.41,1.53,1.53,0,0,1-.09-.54V20.6h-.47V18.73h.47v-.89h1.68v.89H165V20.6Z" transform="translate(-3.46 -2.31)"/><path class="cls-5" d="M167.75,17.75h1.64l.28.7c.09.21.18.43.26.64s.17.42.25.64.16.45.24.7c.08-.26.17-.49.25-.71s.17-.44.26-.65.17-.42.26-.64l.26-.68h1.69v4.74h-1.59V21.41l-.41,1.08H169.8l-.51-1.18v1.18h-1.65Z" transform="translate(-3.46 -2.31)"/></svg>